# Blender v2.81 (sub 16) OBJ File: ''
# www.blender.org
o Plane
v -50.000000 -13.000000 3.500000
v -50.000000 -47.000000 20.000000
v -50.000000 -13.000000 -3.500000
v -50.000000 -47.000000 -20.000000
v -110.000000 -53.000000 -3.500000
v -110.000000 -53.000000 3.500000
v -110.000000 -87.000000 20.000000
v -110.000000 -87.000000 -20.000000
v -200.000000 -83.000000 -3.500000
v -200.000000 -83.000000 3.500000
v -200.000000 -116.999992 20.000000
v -200.000000 -116.999992 -20.000000
v -280.000000 -93.000000 -3.500000
v -280.000000 -93.000000 3.500000
v -280.000000 -126.999992 20.000000
v -280.000000 -126.999992 -20.000000
vt 2.609069 11.600715
vt 0.230285 10.145577
vt 0.566001 10.007462
vt -3.392888 4.967856
vt -0.150597 -2.814935
vt -0.050581 5.983157
vt -2.061283 11.599684
vt 0.542457 5.974489
vt 0.159602 -4.900226
vt -4.019341 -12.433921
vt 0.159603 -12.433921
vt 0.159605 13.433921
vt -4.019337 5.011001
vt 0.159603 5.010999
vt 0.455011 -2.817753
vt 3.882095 4.916011
vt -4.019339 -4.900225
vt -0.088893 -8.378323
vt 1.981150 -10.600715
vt 0.366189 -8.315298
vt -3.547379 -3.678839
vt 3.882095 -3.792827
vt -4.019335 13.433921
vt -2.003038 -10.422521
vn 1.0000 0.0000 0.0000
vn -0.1440 0.4320 -0.8903
vn -0.2795 0.4192 -0.8638
vn -0.2795 0.4192 0.8638
vn 0.5547 -0.8321 0.0000
vn -0.5547 0.8321 0.0000
vn 0.1240 -0.9923 0.0000
vn -0.1440 0.4320 0.8903
vn 0.3162 -0.9487 0.0000
vn -0.3162 0.9487 0.0000
vn -1.0000 0.0000 0.0000
vn -0.1240 0.9923 0.0000
vn -0.0545 0.4359 -0.8983
vn -0.0545 0.4359 0.8983
s off
f 2/1/1 3/2/1 1/3/1
f 8/4/2 9/5/2 5/6/2
f 4/7/3 5/6/3 3/2/3
f 6/8/4 2/1/4 1/3/4
f 7/9/5 4/10/5 2/11/5
f 5/6/6 1/3/6 3/2/6
f 15/12/7 12/13/7 11/14/7
f 10/15/8 7/16/8 6/8/8
f 11/14/9 8/17/9 7/9/9
f 9/5/10 6/8/10 5/6/10
f 13/18/11 15/19/11 14/20/11
f 13/18/12 10/15/12 9/5/12
f 12/21/13 13/18/13 9/5/13
f 14/20/14 11/22/14 10/15/14
f 2/1/1 4/7/1 3/2/1
f 8/4/2 12/21/2 9/5/2
f 4/7/3 8/4/3 5/6/3
f 6/8/4 7/16/4 2/1/4
f 7/9/5 8/17/5 4/10/5
f 5/6/6 6/8/6 1/3/6
f 15/12/7 16/23/7 12/13/7
f 10/15/8 11/22/8 7/16/8
f 11/14/9 12/13/9 8/17/9
f 9/5/10 10/15/10 6/8/10
f 13/18/11 16/24/11 15/19/11
f 13/18/12 14/20/12 10/15/12
f 12/21/13 16/24/13 13/18/13
f 14/20/14 15/19/14 11/22/14
o Cube_Cube.001
v -12.000000 -72.000000 32.000000
v -12.000000 -8.000000 32.000000
v -12.000000 -72.000000 -32.000000
v -12.000000 -8.000000 -32.000000
v 52.000000 -72.000000 32.000000
v 52.000000 -8.000000 32.000000
v 52.000000 -72.000000 -32.000000
v 52.000000 -8.000000 -32.000000
vt 0.625000 0.000000
vt 0.375000 0.250000
vt 0.375000 0.000000
vt 0.625000 0.250000
vt 0.375000 0.500000
vt 0.625000 0.500000
vt 0.375000 0.750000
vt 0.625000 0.750000
vt 0.375000 1.000000
vt 0.125000 0.750000
vt 0.125000 0.500000
vt 0.875000 0.500000
vt 0.625000 1.000000
vt 0.875000 0.750000
vn -1.0000 0.0000 0.0000
vn 0.0000 0.0000 -1.0000
vn 1.0000 0.0000 0.0000
vn 0.0000 0.0000 1.0000
vn 0.0000 -1.0000 0.0000
vn 0.0000 1.0000 0.0000
s off
f 18/25/15 19/26/15 17/27/15
f 20/28/16 23/29/16 19/26/16
f 24/30/17 21/31/17 23/29/17
f 22/32/18 17/33/18 21/31/18
f 23/29/19 17/34/19 19/35/19
f 20/36/20 22/32/20 24/30/20
f 18/25/15 20/28/15 19/26/15
f 20/28/16 24/30/16 23/29/16
f 24/30/17 22/32/17 21/31/17
f 22/32/18 18/37/18 17/33/18
f 23/29/19 21/31/19 17/34/19
f 20/36/20 18/38/20 22/32/20
o Plane.001
v -610.000000 -113.000000 -3.500000
v -610.000000 -147.000000 -20.000000
v -610.000000 -113.000000 3.500000
v -610.000000 -147.000000 20.000000
v -550.000000 -102.999985 3.500009
v -550.000000 -102.999985 -3.499991
v -550.000000 -137.000000 -19.999990
v -550.000000 -137.000000 20.000010
v -460.000000 -92.999985 3.500023
v -460.000000 -92.999985 -3.499977
v -460.000000 -126.999977 -19.999977
v -460.000000 -126.999977 20.000023
v -380.000000 -82.999969 3.500035
v -380.000000 -82.999969 -3.499965
v -380.000000 -116.999962 -19.999966
v -380.000000 -116.999962 20.000034
v -710.000000 -122.999962 3.500035
v -710.000000 -122.999962 -3.499965
v -710.000000 -156.999954 -19.999966
v -710.000000 -156.999954 20.000034
v -753.819885 -133.212036 -27.803682
v -751.736389 -133.323181 -34.485493
v -741.268921 -167.049896 -47.946220
v -753.174744 -166.414749 -9.764464
v -804.406250 -143.212051 -70.007896
v -799.260986 -143.323181 -74.752739
v -783.465515 -177.049896 -81.176331
v -812.867188 -176.414749 -54.062897
v -843.812012 -153.212051 -142.209976
v -836.983643 -153.323196 -143.746490
v -820.092529 -187.049896 -141.411758
v -859.111816 -186.414749 -132.631653
v -862.826233 -163.212051 -233.380493
v -855.884155 -163.323196 -232.488892
v -840.810242 -197.049896 -224.517868
v -880.479370 -196.414749 -229.612686
v -804.406250 -143.212051 -70.007896
v -804.406250 -143.212051 -70.007896
v -799.260986 -143.323181 -74.752739
v -799.260986 -143.323181 -74.752739
v -783.465515 -177.049896 -81.176331
v -783.465515 -177.049896 -81.176331
v -812.867188 -176.414749 -54.062897
v -812.867188 -176.414749 -54.062897
v -843.812012 -153.212051 -142.209976
v -843.812012 -153.212051 -142.209976
v -836.983643 -153.323196 -143.746490
v -836.983643 -153.323196 -143.746490
v -820.092529 -187.049896 -141.411758
v -820.092529 -187.049896 -141.411758
v -859.111816 -186.414749 -132.631653
v -859.111816 -186.414749 -132.631653
v -862.826233 -162.880081 -340.413879
v -855.884155 -163.144363 -339.555145
v -840.810242 -197.742844 -337.561829
v -880.479370 -196.232635 -342.468933
v -862.826233 -164.966721 -381.798462
v -855.884155 -165.624954 -381.186920
v -840.810242 -196.584793 -396.759918
v -880.479370 -192.823364 -400.254486
v -862.826233 -164.966721 -531.798523
v -855.884155 -165.624954 -531.186951
v -840.810242 -206.584793 -526.759949
v -880.479370 -202.823364 -530.254517
v -793.932495 -173.382675 -596.893188
v -790.245117 -175.052185 -591.182129
v -777.375854 -210.552460 -579.644897
v -798.446533 -201.012466 -612.279541
v -723.932495 -163.382690 -626.893188
v -720.245117 -165.052185 -621.182129
v -707.375854 -200.552444 -609.644897
v -728.446533 -191.012466 -642.279541
v -652.755615 -153.144821 -643.091980
v -652.536560 -153.279297 -636.096680
v -646.727905 -187.172089 -620.419006
v -647.979797 -186.403625 -660.392090
v -572.755615 -133.144836 -643.091980
v -572.536560 -133.279312 -636.096680
v -566.727905 -167.172104 -620.419006
v -567.979797 -166.403625 -660.392090
v -472.755615 -113.144829 -643.091980
v -472.536560 -113.279320 -636.096680
v -466.727905 -147.172089 -620.419006
v -467.979767 -146.403625 -660.392090
vt 2.609069 11.600715
vt 0.230285 10.145577
vt 0.566001 10.007462
vt -3.547379 -3.678839
vt -0.050581 5.983157
vt -3.392888 4.967856
vt -2.061283 11.599684
vt 3.882095 4.916011
vt 4.342706 -4.900226
vt 0.163764 -12.433921
vt 4.342708 -12.433921
vt 4.342710 13.433921
vt 0.163767 5.011001
vt 4.342708 5.010999
vt 0.542457 5.974489
vt 3.882095 -3.792827
vt 0.163766 -4.900225
vt -0.150597 -2.814935
vt -0.088893 -8.378323
vt 1.981150 -10.600715
vt 0.366189 -8.315298
vt 0.455011 -2.817753
vt -2.003038 -10.422521
vt 3.634736 -3.240521
vt 3.573638 -3.239125
vt 3.631433 -3.232653
vt 5.391462 -3.259213
vt 5.320418 -0.163152
vt 3.265889 -3.849050
vt 3.452805 -3.006437
vt 3.631143 -3.248957
vt 3.191616 -3.746213
vt 4.747298 3.490186
vt 3.230181 0.321913
vt 3.191616 3.154581
vt 5.929502 -5.648235
vt 5.929502 -0.420498
vt 0.433877 -0.719679
vt 3.187317 -5.648235
vt -5.097512 -2.400560
vt 5.935866 -2.426862
vt 6.203972 -5.648235
vt 5.933801 -5.580606
vt 4.764238 0.070839
vt 6.250220 3.490187
vt 6.250220 -0.158854
vt 3.206862 6.416845
vt 4.692582 3.494485
vt 3.191616 3.583955
vt 0.570063 -0.807179
vt 0.430479 -1.332599
vt 0.895678 -0.950886
vt 0.531098 -0.768354
vt -5.310070 -1.643714
vt 3.187317 5.602864
vt 0.466095 -0.730654
vt 0.227064 -0.165309
vt 0.264444 -0.814604
vt -0.149900 -0.509624
vt 0.463930 -0.503847
vt 0.836488 -0.335926
vt 0.463883 -0.727493
vt 0.462213 -0.725484
vt 0.463530 -0.726373
vt 0.291769 -0.379481
vt 0.297757 -0.534920
vt 0.189254 -0.045360
vt 0.366189 -8.315298
vt -2.003038 -10.422521
vt 1.981150 -10.600715
vt -2.003038 -10.422521
vt 1.981150 -10.600715
vt -2.003038 -10.422521
vt -0.088893 -8.378323
vt -0.088893 -8.378323
vt 0.366189 -8.315298
vt 0.366189 -8.315298
vt -0.088893 -8.378323
vt -0.088893 -8.378323
vt -2.003038 -10.422521
vt 1.981150 -10.600715
vt -2.003038 -10.422521
vt 1.981150 -10.600715
vt -0.088893 -8.378323
vt -2.003038 -10.422521
vt 0.366189 -8.315298
vt 1.981150 -10.600715
vt 1.981150 -10.600715
vt -0.088893 -8.378323
vt 0.366189 -8.315298
vt 0.366189 -8.315298
vt 0.163770 13.433921
vt 3.197083 -3.557237
vt 4.747298 -0.158854
vt 0.480934 -0.739127
vt 6.203972 -2.351463
vt 4.751597 3.367589
vt 4.692582 6.648234
vt 0.464488 -0.729493
vt 0.048184 0.049897
vn -1.0000 0.0000 0.0000
vn -0.0485 0.4361 0.8986
vn -0.0726 0.4354 0.8973
vn -0.0726 0.4354 -0.8973
vn 0.1644 -0.9864 0.0000
vn -0.1644 0.9864 0.0000
vn 0.1240 -0.9923 0.0000
vn -0.0485 0.4361 -0.8986
vn 0.1104 -0.9939 0.0000
vn -0.1104 0.9939 0.0000
vn 1.0000 0.0000 0.0000
vn -0.1240 0.9923 0.0000
vn -0.0545 0.4359 0.8983
vn -0.0545 0.4359 -0.8983
vn 0.5199 0.4509 -0.7255
vn 0.2131 -0.9770 0.0000
vn -0.2270 0.9739 0.0000
vn -0.5819 0.3551 0.7317
vn 0.4886 0.3809 -0.7850
vn 0.0834 -0.9900 0.1136
vn 0.1248 -0.9906 0.0554
vn -0.1441 0.9877 -0.0613
vn -0.5920 0.3758 0.7129
vn -0.8844 0.4466 0.1355
vn -0.0739 0.9919 -0.1034
vn -0.8081 0.4093 0.4235
vn 0.7322 0.4417 -0.5185
vn -0.0168 -0.9998 0.0061
vn 0.8690 0.4167 -0.2668
vn 0.0102 -0.9931 0.1170
vn -0.0086 0.9939 -0.1102
vn 0.9170 0.3982 -0.0237
vn 0.0158 0.9999 0.0017
vn -0.8829 0.4695 0.0008
vn 0.9132 0.4075 -0.0025
vn 0.1226 0.4930 -0.8614
vn -0.0356 -0.9992 -0.0195
vn 0.0453 0.9972 -0.0594
vn -0.8830 0.4688 -0.0236
vn -0.0802 0.0779 0.9937
vn 0.0132 -0.9574 -0.2884
vn 0.0967 0.9950 -0.0263
vn -0.6800 0.2896 -0.6736
vn 0.6642 0.3176 0.6768
vn -0.0846 -0.9907 -0.1064
vn -0.0638 0.9460 0.3177
vn -0.0132 0.9574 0.2884
vn -0.4011 0.4948 -0.7709
vn 0.3138 0.3944 0.8637
vn 0.2425 -0.9698 -0.0262
vn -0.2599 0.5019 -0.8250
vn 0.0919 0.3377 0.9367
vn -0.0072 -0.9610 -0.2763
vn -0.0899 0.4494 -0.8888
vn -0.2424 0.9698 0.0262
vn -0.1115 0.4459 -0.8881
vn -0.1008 0.4034 0.9095
vn 0.9873 0.1563 -0.0279
vn -0.0814 0.4069 0.9098
vn 0.1961 -0.9803 -0.0250
vn -0.1961 0.9803 0.0250
vn 0.5125 0.3861 -0.7670
vn 0.2322 -0.9686 0.0885
vn -0.1869 0.9795 -0.0746
vn -0.5952 0.3747 0.7109
vn 0.5100 0.4507 -0.7327
vn 0.0108 -0.9927 0.1200
vn 0.1158 -0.9821 0.1485
vn -0.0980 0.9867 -0.1294
vn -0.6201 0.4624 0.6337
vn -0.8673 0.4772 0.1419
vn -0.0131 0.9914 -0.1301
vn -0.7985 0.4747 0.3701
vn 0.7940 0.3640 -0.4869
vn -0.0378 -0.9993 -0.0016
vn 0.9072 0.3505 -0.2327
vn -0.0299 -0.9936 0.1090
vn 0.0307 0.9929 -0.1153
vn 0.9007 0.4343 0.0085
vn 0.0377 0.9993 0.0031
vn -0.8839 0.4677 0.0015
vn 0.9168 0.3995 0.0007
vn -0.0891 -0.9943 -0.0587
vn 0.0987 0.9939 -0.0501
vn -0.8533 0.5204 0.0307
vn 0.2483 0.9611 0.1206
vn -0.5763 0.4675 -0.6704
vn 0.5925 0.4351 0.6780
vn -0.1928 -0.9683 -0.1586
vn -0.1661 0.9858 0.0241
vn -0.2219 0.4247 -0.8777
vn 0.1212 0.4338 0.8928
vn 0.2111 -0.9771 -0.0254
vn -0.2425 0.9698 0.0262
s off
f 26/39/21 27/40/21 25/41/21
f 36/42/22 29/43/22 32/44/22
f 32/44/23 27/40/23 28/45/23
f 25/41/24 31/46/24 26/39/24
f 31/47/25 28/48/25 26/49/25
f 29/43/26 25/41/26 27/40/26
f 39/50/27 36/51/27 35/52/27
f 30/53/28 35/54/28 31/46/28
f 35/52/29 32/55/29 31/47/29
f 33/56/30 30/53/30 29/43/30
f 37/57/31 39/58/31 38/59/31
f 37/57/32 34/60/32 33/56/32
f 40/61/33 33/56/33 36/42/33
f 34/60/34 39/58/34 35/54/34
f 41/62/31 43/63/31 42/64/31
f 47/65/35 63/66/35 46/67/35
f 48/68/36 43/63/36 44/69/36
f 42/64/37 45/70/37 41/62/37
f 41/62/38 48/68/38 44/69/38
f 43/63/39 46/67/39 42/64/39
f 67/71/40 74/72/40 66/73/40
f 68/74/41 47/65/41 48/68/41
f 46/67/42 61/75/42 45/70/42
f 45/70/43 68/74/43 48/68/43
f 57/76/44 56/77/44 53/78/44
f 71/79/45 62/80/45 64/81/45
f 49/82/46 76/83/46 52/84/46
f 73/85/47 50/86/47 51/87/47
f 60/88/48 79/89/48 59/90/48
f 59/91/49 54/92/49 55/93/49
f 56/77/50 59/91/50 55/93/50
f 58/94/51 53/78/51 54/92/51
f 79/89/52 82/95/52 78/96/52
f 78/96/53 57/97/53 58/98/53
f 57/97/54 80/99/54 60/88/54
f 79/89/55 58/98/55 59/90/55
f 82/100/56 84/101/56 81/102/56
f 80/99/57 83/103/57 79/89/57
f 82/95/58 77/104/58 78/96/58
f 81/105/59 80/99/59 77/104/59
f 86/106/60 88/107/60 87/108/60
f 96/109/61 91/110/61 92/111/61
f 86/106/62 89/112/62 85/113/62
f 85/113/63 92/111/63 88/107/63
f 87/108/64 90/114/64 86/106/64
f 92/111/65 87/108/65 88/107/65
f 94/115/66 97/116/66 93/117/66
f 90/114/67 93/117/67 89/112/67
f 89/112/68 96/109/68 92/111/68
f 91/110/69 94/115/69 90/114/69
f 104/118/70 99/119/70 100/120/70
f 97/116/71 96/109/71 93/117/71
f 99/119/72 94/115/72 95/121/72
f 100/120/73 95/121/73 96/109/73
f 101/122/74 108/123/74 104/118/74
f 98/124/75 101/122/75 97/116/75
f 97/116/76 104/118/76 100/120/76
f 103/125/77 98/124/77 99/119/77
f 107/126/78 105/127/78 106/128/78
f 107/126/79 102/129/79 103/125/79
f 108/123/80 103/125/80 104/118/80
f 102/129/81 105/127/81 101/122/81
f 26/39/21 28/45/21 27/40/21
f 36/42/22 33/56/22 29/43/22
f 32/44/23 29/43/23 27/40/23
f 25/41/24 30/53/24 31/46/24
f 31/47/25 32/55/25 28/48/25
f 29/43/26 30/53/26 25/41/26
f 39/50/27 40/130/27 36/51/27
f 30/53/28 34/60/28 35/54/28
f 35/52/29 36/51/29 32/55/29
f 33/56/30 34/60/30 30/53/30
f 37/57/31 40/61/31 39/58/31
f 37/57/32 38/59/32 34/60/32
f 40/61/33 37/57/33 33/56/33
f 34/60/34 38/59/34 39/58/34
f 41/62/31 44/69/31 43/63/31
f 47/65/82 65/131/82 63/66/82
f 48/68/83 47/65/83 43/63/83
f 42/64/84 46/67/84 45/70/84
f 41/62/85 45/70/85 48/68/85
f 43/63/86 47/65/86 46/67/86
f 67/71/87 75/132/87 74/72/87
f 68/74/88 65/131/88 47/65/88
f 46/67/89 63/66/89 61/75/89
f 45/70/90 61/75/90 68/74/90
f 57/76/91 60/133/91 56/77/91
f 71/79/92 69/134/92 62/80/92
f 49/82/93 70/135/93 76/83/93
f 73/85/94 72/136/94 50/86/94
f 60/88/95 80/99/95 79/89/95
f 59/91/96 58/94/96 54/92/96
f 56/77/97 60/133/97 59/91/97
f 58/94/98 57/76/98 53/78/98
f 79/89/99 83/103/99 82/95/99
f 78/96/100 77/104/100 57/97/100
f 57/97/101 77/104/101 80/99/101
f 79/89/102 78/96/102 58/98/102
f 82/100/56 83/137/56 84/101/56
f 80/99/103 84/138/103 83/103/103
f 82/95/104 81/105/104 77/104/104
f 81/105/105 84/138/105 80/99/105
f 86/106/60 85/113/60 88/107/60
f 96/109/61 95/121/61 91/110/61
f 86/106/106 90/114/106 89/112/106
f 85/113/107 89/112/107 92/111/107
f 87/108/108 91/110/108 90/114/108
f 92/111/109 91/110/109 87/108/109
f 94/115/110 98/124/110 97/116/110
f 90/114/67 94/115/67 93/117/67
f 89/112/68 93/117/68 96/109/68
f 91/110/69 95/121/69 94/115/69
f 104/118/70 103/125/70 99/119/70
f 97/116/111 100/120/111 96/109/111
f 99/119/112 98/124/112 94/115/112
f 100/120/113 99/119/113 95/121/113
f 101/122/74 105/127/74 108/123/74
f 98/124/114 102/129/114 101/122/114
f 97/116/76 101/122/76 104/118/76
f 103/125/77 102/129/77 98/124/77
f 107/126/78 108/123/78 105/127/78
f 107/126/79 106/128/79 102/129/79
f 108/123/80 107/126/80 103/125/80
f 102/129/81 106/128/81 105/127/81
o Cube.001_Cube.002
v -338.000000 -248.399994 -612.000000
v -338.000000 -91.600006 -612.000000
v -338.000000 -248.399994 -668.000000
v -338.000000 -91.600006 -668.000000
v -282.000000 -248.399994 -612.000000
v -282.000000 -91.600006 -612.000000
v -282.000000 -248.399994 -668.000000
v -282.000000 -91.600006 -668.000000
vt 3.375000 -11.000000
vt -2.375000 -5.250000
vt -2.375000 -11.000000
vt 3.375000 -5.250000
vt -2.375000 0.500000
vt 3.375000 0.500000
vt -2.375000 6.250000
vt 3.375000 6.250000
vt -2.375000 12.000000
vt -8.125000 6.250000
vt -8.125000 0.500000
vt 9.125000 0.500000
vt 3.375000 12.000000
vt 9.125000 6.250000
vn -1.0000 0.0000 0.0000
vn 0.0000 0.0000 -1.0000
vn 1.0000 0.0000 0.0000
vn 0.0000 0.0000 1.0000
vn 0.0000 -1.0000 0.0000
vn 0.0000 1.0000 0.0000
s off
f 110/139/115 111/140/115 109/141/115
f 112/142/116 115/143/116 111/140/116
f 116/144/117 113/145/117 115/143/117
f 114/146/118 109/147/118 113/145/118
f 115/143/119 109/148/119 111/149/119
f 112/150/120 114/146/120 116/144/120
f 110/139/115 112/142/115 111/140/115
f 112/142/116 116/144/116 115/143/116
f 116/144/117 114/146/117 113/145/117
f 114/146/118 110/151/118 109/147/118
f 115/143/119 113/145/119 109/148/119
f 112/150/120 110/152/120 114/146/120
o Cube.002_Cube.003
v -238.000000 -238.399994 -562.000000
v -238.000000 -81.600006 -562.000000
v -238.000000 -238.399994 -618.000000
v -238.000000 -81.600006 -618.000000
v -182.000000 -238.399994 -562.000000
v -182.000000 -81.600006 -562.000000
v -182.000000 -238.399994 -618.000000
v -182.000000 -81.600006 -618.000000
vt 3.375000 -11.000000
vt -2.375000 -5.250000
vt -2.375000 -11.000000
vt 3.375000 -5.250000
vt -2.375000 0.500000
vt 3.375000 0.500000
vt -2.375000 6.250000
vt 3.375000 6.250000
vt -2.375000 12.000000
vt -8.125000 6.250000
vt -8.125000 0.500000
vt 9.125000 0.500000
vt 3.375000 12.000000
vt 9.125000 6.250000
vn -1.0000 0.0000 0.0000
vn 0.0000 0.0000 -1.0000
vn 1.0000 0.0000 0.0000
vn 0.0000 0.0000 1.0000
vn 0.0000 -1.0000 0.0000
vn 0.0000 1.0000 0.0000
s off
f 118/153/121 119/154/121 117/155/121
f 120/156/122 123/157/122 119/154/122
f 124/158/123 121/159/123 123/157/123
f 122/160/124 117/161/124 121/159/124
f 123/157/125 117/162/125 119/163/125
f 120/164/126 122/160/126 124/158/126
f 118/153/121 120/156/121 119/154/121
f 120/156/122 124/158/122 123/157/122
f 124/158/123 122/160/123 121/159/123
f 122/160/124 118/165/124 117/161/124
f 123/157/125 121/159/125 117/162/125
f 120/164/126 118/166/126 122/160/126
o Cube.003_Cube.004
v -138.000000 -218.399994 -482.000000
v -138.000000 -61.600006 -482.000000
v -138.000000 -218.399994 -538.000000
v -138.000000 -61.600006 -538.000000
v -82.000000 -218.399994 -482.000000
v -82.000000 -61.600006 -482.000000
v -82.000000 -218.399994 -538.000000
v -82.000000 -61.600006 -538.000000
vt 3.375000 -11.000000
vt -2.375000 -5.250000
vt -2.375000 -11.000000
vt 3.375000 -5.250000
vt -2.375000 0.500000
vt 3.375000 0.500000
vt -2.375000 6.250000
vt 3.375000 6.250000
vt -2.375000 12.000000
vt -8.125000 6.250000
vt -8.125000 0.500000
vt 9.125000 0.500000
vt 3.375000 12.000000
vt 9.125000 6.250000
vn -1.0000 0.0000 0.0000
vn 0.0000 0.0000 -1.0000
vn 1.0000 0.0000 0.0000
vn 0.0000 0.0000 1.0000
vn 0.0000 -1.0000 0.0000
vn 0.0000 1.0000 0.0000
s off
f 126/167/127 127/168/127 125/169/127
f 128/170/128 131/171/128 127/168/128
f 132/172/129 129/173/129 131/171/129
f 130/174/130 125/175/130 129/173/130
f 131/171/131 125/176/131 127/177/131
f 128/178/132 130/174/132 132/172/132
f 126/167/127 128/170/127 127/168/127
f 128/170/128 132/172/128 131/171/128
f 132/172/129 130/174/129 129/173/129
f 130/174/130 126/179/130 125/175/130
f 131/171/131 129/173/131 125/176/131
f 128/178/132 126/180/132 130/174/132
o Cube.004_Cube.005
v -68.000000 -208.399994 -372.000000
v -68.000000 -51.600006 -372.000000
v -68.000000 -208.399994 -428.000000
v -68.000000 -51.600006 -428.000000
v -12.000000 -208.399994 -372.000000
v -12.000000 -51.600006 -372.000000
v -12.000000 -208.399994 -428.000000
v -12.000000 -51.600006 -428.000000
vt 3.375000 -11.000000
vt -2.375000 -5.250000
vt -2.375000 -11.000000
vt 3.375000 -5.250000
vt -2.375000 0.500000
vt 3.375000 0.500000
vt -2.375000 6.250000
vt 3.375000 6.250000
vt -2.375000 12.000000
vt -8.125000 6.250000
vt -8.125000 0.500000
vt 9.125000 0.500000
vt 3.375000 12.000000
vt 9.125000 6.250000
vn -1.0000 0.0000 0.0000
vn 0.0000 0.0000 -1.0000
vn 1.0000 0.0000 0.0000
vn 0.0000 0.0000 1.0000
vn 0.0000 -1.0000 0.0000
vn 0.0000 1.0000 0.0000
s off
f 134/181/133 135/182/133 133/183/133
f 136/184/134 139/185/134 135/182/134
f 140/186/135 137/187/135 139/185/135
f 138/188/136 133/189/136 137/187/136
f 139/185/137 133/190/137 135/191/137
f 136/192/138 138/188/138 140/186/138
f 134/181/133 136/184/133 135/182/133
f 136/184/134 140/186/134 139/185/134
f 140/186/135 138/188/135 137/187/135
f 138/188/136 134/193/136 133/189/136
f 139/185/137 137/187/137 133/190/137
f 136/192/138 134/194/138 138/188/138
o Cube.005_Cube.006
v 42.000000 -188.399994 -262.000000
v 42.000000 -31.600006 -262.000000
v 42.000000 -188.399994 -318.000000
v 42.000000 -31.600006 -318.000000
v 98.000000 -188.399994 -262.000000
v 98.000000 -31.600006 -262.000000
v 98.000000 -188.399994 -318.000000
v 98.000000 -31.600006 -318.000000
vt 3.375000 -11.000000
vt -2.375000 -5.250000
vt -2.375000 -11.000000
vt 3.375000 -5.250000
vt -2.375000 0.500000
vt 3.375000 0.500000
vt -2.375000 6.250000
vt 3.375000 6.250000
vt -2.375000 12.000000
vt -8.125000 6.250000
vt -8.125000 0.500000
vt 9.125000 0.500000
vt 3.375000 12.000000
vt 9.125000 6.250000
vn -1.0000 0.0000 0.0000
vn 0.0000 0.0000 -1.0000
vn 1.0000 0.0000 0.0000
vn 0.0000 0.0000 1.0000
vn 0.0000 -1.0000 0.0000
vn 0.0000 1.0000 0.0000
s off
f 142/195/139 143/196/139 141/197/139
f 144/198/140 147/199/140 143/196/140
f 148/200/141 145/201/141 147/199/141
f 146/202/142 141/203/142 145/201/142
f 147/199/143 141/204/143 143/205/143
f 144/206/144 146/202/144 148/200/144
f 142/195/139 144/198/139 143/196/139
f 144/198/140 148/200/140 147/199/140
f 148/200/141 146/202/141 145/201/141
f 146/202/142 142/207/142 141/203/142
f 147/199/143 145/201/143 141/204/143
f 144/206/144 142/208/144 146/202/144
o Cube.006_Cube.007
v -8.000000 -178.399994 -152.000000
v -8.000000 -21.600006 -152.000000
v -8.000000 -178.399994 -208.000000
v -8.000000 -21.600006 -208.000000
v 48.000000 -178.399994 -152.000000
v 48.000000 -21.600006 -152.000000
v 48.000000 -178.399994 -208.000000
v 48.000000 -21.600006 -208.000000
vt 3.375000 -11.000000
vt -2.375000 -5.250000
vt -2.375000 -11.000000
vt 3.375000 -5.250000
vt -2.375000 0.500000
vt 3.375000 0.500000
vt -2.375000 6.250000
vt 3.375000 6.250000
vt -2.375000 12.000000
vt -8.125000 6.250000
vt -8.125000 0.500000
vt 9.125000 0.500000
vt 3.375000 12.000000
vt 9.125000 6.250000
vn -1.0000 0.0000 0.0000
vn 0.0000 0.0000 -1.0000
vn 1.0000 0.0000 0.0000
vn 0.0000 0.0000 1.0000
vn 0.0000 -1.0000 0.0000
vn 0.0000 1.0000 0.0000
s off
f 150/209/145 151/210/145 149/211/145
f 152/212/146 155/213/146 151/210/146
f 156/214/147 153/215/147 155/213/147
f 154/216/148 149/217/148 153/215/148
f 155/213/149 149/218/149 151/219/149
f 152/220/150 154/216/150 156/214/150
f 150/209/145 152/212/145 151/210/145
f 152/212/146 156/214/146 155/213/146
f 156/214/147 154/216/147 153/215/147
f 154/216/148 150/221/148 149/217/148
f 155/213/149 153/215/149 149/218/149
f 152/220/150 150/222/150 154/216/150
o Cube.007_Cube.008
v -8.000000 -168.399994 -52.000000
v -8.000000 -11.600006 -52.000000
v -8.000000 -168.399994 -108.000000
v -8.000000 -11.600006 -108.000000
v 48.000000 -168.399994 -52.000000
v 48.000000 -11.600006 -52.000000
v 48.000000 -168.399994 -108.000000
v 48.000000 -11.600006 -108.000000
vt 3.375000 -11.000000
vt -2.375000 -5.250000
vt -2.375000 -11.000000
vt 3.375000 -5.250000
vt -2.375000 0.500000
vt 3.375000 0.500000
vt -2.375000 6.250000
vt 3.375000 6.250000
vt -2.375000 12.000000
vt -8.125000 6.250000
vt -8.125000 0.500000
vt 9.125000 0.500000
vt 3.375000 12.000000
vt 9.125000 6.250000
vn -1.0000 0.0000 0.0000
vn 0.0000 0.0000 -1.0000
vn 1.0000 0.0000 0.0000
vn 0.0000 0.0000 1.0000
vn 0.0000 -1.0000 0.0000
vn 0.0000 1.0000 0.0000
s off
f 158/223/151 159/224/151 157/225/151
f 160/226/152 163/227/152 159/224/152
f 164/228/153 161/229/153 163/227/153
f 162/230/154 157/231/154 161/229/154
f 163/227/155 157/232/155 159/233/155
f 160/234/156 162/230/156 164/228/156
f 158/223/151 160/226/151 159/224/151
f 160/226/152 164/228/152 163/227/152
f 164/228/153 162/230/153 161/229/153
f 162/230/154 158/235/154 157/231/154
f 163/227/155 161/229/155 157/232/155
f 160/234/156 158/236/156 162/230/156
