# Blender v2.81 (sub 16) OBJ File: ''
# www.blender.org
o Plane
v -50.000000 -13.000000 3.500000
v -50.000000 -47.000000 20.000000
v -50.000000 -13.000000 -3.500000
v -50.000000 -47.000000 -20.000000
v -110.000000 -53.000000 -3.500000
v -110.000000 -53.000000 3.500000
v -110.000000 -87.000000 20.000000
v -110.000000 -87.000000 -20.000000
v -200.000000 -83.000000 -3.500000
v -200.000000 -83.000000 3.500000
v -200.000000 -116.999992 20.000000
v -200.000000 -116.999992 -20.000000
v -280.000000 -93.000000 -3.500000
v -280.000000 -93.000000 3.500000
v -280.000000 -126.999992 20.000000
v -280.000000 -126.999992 -20.000000
vt 2.609069 11.600715
vt 0.230285 10.145577
vt 0.566001 10.007462
vt -3.392888 4.967856
vt -0.150597 -2.814935
vt -0.050581 5.983157
vt -2.061283 11.599684
vt 0.542457 5.974489
vt 1.000000 1.000000
vt 1.000000 0.000000
vt 1.000000 0.000000
vt 1.000000 1.000000
vt 1.000000 0.000000
vt 1.000000 0.000000
vt 0.455011 -2.817753
vt 3.882095 4.916011
vt 1.000000 1.000000
vt -0.088893 -8.378323
vt 1.981150 -10.600715
vt 0.366189 -8.315298
vt -3.547379 -3.678839
vt 3.882095 -3.792827
vt 1.000000 1.000000
vt -2.003038 -10.422521
vn 1.0000 0.0000 0.0000
vn -0.1440 0.4320 -0.8903
vn -0.2795 0.4192 -0.8638
vn -0.2795 0.4192 0.8638
vn -0.5547 0.8321 0.0000
vn -0.1240 0.9923 0.0000
vn -0.1440 0.4320 0.8903
vn -0.3162 0.9487 0.0000
vn -1.0000 0.0000 0.0000
vn -0.0545 0.4359 -0.8983
vn -0.0545 0.4359 0.8983
s off
f 2/1/1 3/2/1 1/3/1
f 8/4/2 9/5/2 5/6/2
f 4/7/3 5/6/3 3/2/3
f 6/8/4 2/1/4 1/3/4
f 4/9/5 7/10/5 2/11/5
f 5/6/5 1/3/5 3/2/5
f 12/12/6 15/13/6 11/14/6
f 10/15/7 7/16/7 6/8/7
f 8/17/8 11/14/8 7/10/8
f 9/5/8 6/8/8 5/6/8
f 13/18/9 15/19/9 14/20/9
f 13/18/6 10/15/6 9/5/6
f 12/21/10 13/18/10 9/5/10
f 14/20/11 11/22/11 10/15/11
f 2/1/1 4/7/1 3/2/1
f 8/4/2 12/21/2 9/5/2
f 4/7/3 8/4/3 5/6/3
f 6/8/4 7/16/4 2/1/4
f 4/9/5 8/17/5 7/10/5
f 5/6/5 6/8/5 1/3/5
f 12/12/6 16/23/6 15/13/6
f 10/15/7 11/22/7 7/16/7
f 8/17/8 12/12/8 11/14/8
f 9/5/8 10/15/8 6/8/8
f 13/18/9 16/24/9 15/19/9
f 13/18/6 14/20/6 10/15/6
f 12/21/10 16/24/10 13/18/10
f 14/20/11 15/19/11 11/22/11
o Cube_Cube.001
v -12.000000 -72.000000 32.000000
v -12.000000 -8.000000 32.000000
v -12.000000 -72.000000 -32.000000
v -12.000000 -8.000000 -32.000000
v 52.000000 -72.000000 32.000000
v 52.000000 -8.000000 32.000000
v 52.000000 -72.000000 -32.000000
v 52.000000 -8.000000 -32.000000
vt 0.625000 0.000000
vt 0.375000 0.250000
vt 0.375000 0.000000
vt 0.625000 0.250000
vt 0.375000 0.500000
vt 0.625000 0.500000
vt 0.375000 0.750000
vt 0.625000 0.750000
vt 0.375000 1.000000
vt 0.125000 0.750000
vt 0.125000 0.500000
vt 0.875000 0.500000
vt 0.625000 1.000000
vt 0.875000 0.750000
vn -1.0000 0.0000 0.0000
vn 0.0000 0.0000 -1.0000
vn 1.0000 0.0000 0.0000
vn 0.0000 0.0000 1.0000
vn 0.0000 -1.0000 0.0000
vn 0.0000 1.0000 0.0000
s off
f 18/25/12 19/26/12 17/27/12
f 20/28/13 23/29/13 19/26/13
f 24/30/14 21/31/14 23/29/14
f 22/32/15 17/33/15 21/31/15
f 23/29/16 17/34/16 19/35/16
f 20/36/17 22/32/17 24/30/17
f 18/25/12 20/28/12 19/26/12
f 20/28/13 24/30/13 23/29/13
f 24/30/14 22/32/14 21/31/14
f 22/32/15 18/37/15 17/33/15
f 23/29/16 21/31/16 17/34/16
f 20/36/17 18/38/17 22/32/17
o Plane.001
v -610.000000 -13.000000 -3.500000
v -610.000000 -47.000000 -20.000000
v -610.000000 -13.000000 3.500000
v -610.000000 -47.000000 20.000000
v -550.000000 -52.999992 3.500009
v -550.000000 -52.999992 -3.499991
v -550.000000 -87.000000 -19.999990
v -550.000000 -87.000000 20.000010
v -460.000000 -82.999977 3.500023
v -460.000000 -82.999977 -3.499977
v -460.000000 -116.999977 -19.999977
v -460.000000 -116.999977 20.000023
v -380.000000 -92.999969 3.500035
v -380.000000 -92.999969 -3.499965
v -380.000000 -126.999962 -19.999966
v -380.000000 -126.999962 20.000034
vt 2.609069 11.600715
vt 0.230285 10.145577
vt 0.566001 10.007462
vt -3.392888 4.967856
vt -0.150597 -2.814935
vt -0.050581 5.983157
vt -2.061283 11.599684
vt 0.542457 5.974489
vt 1.000000 1.000000
vt 1.000000 0.000000
vt 1.000000 0.000000
vt 1.000000 1.000000
vt 1.000000 0.000000
vt 1.000000 0.000000
vt 0.455011 -2.817753
vt 3.882095 4.916011
vt 1.000000 1.000000
vt -0.088893 -8.378323
vt 1.981150 -10.600715
vt 0.366189 -8.315298
vt -3.547379 -3.678839
vt 3.882095 -3.792827
vt 1.000000 1.000000
vt -2.003038 -10.422521
vn -1.0000 0.0000 0.0000
vn 0.1440 0.4320 0.8903
vn 0.2795 0.4192 0.8638
vn 0.2795 0.4192 -0.8638
vn 0.5547 0.8320 0.0000
vn 0.5547 0.8321 0.0000
vn 0.1240 0.9923 0.0000
vn 0.1440 0.4320 -0.8903
vn 0.3162 0.9487 0.0000
vn 1.0000 0.0000 0.0000
vn 0.0545 0.4359 0.8983
vn 0.0545 0.4359 -0.8983
s off
f 26/39/18 27/40/18 25/41/18
f 32/42/19 33/43/19 29/44/19
f 28/45/20 29/44/20 27/40/20
f 30/46/21 26/39/21 25/41/21
f 28/47/22 31/48/22 26/49/22
f 29/44/23 25/41/23 27/40/23
f 36/50/24 39/51/24 35/52/24
f 34/53/25 31/54/25 30/46/25
f 32/55/26 35/52/26 31/48/26
f 33/43/26 30/46/26 29/44/26
f 37/56/27 39/57/27 38/58/27
f 37/56/24 34/53/24 33/43/24
f 36/59/28 37/56/28 33/43/28
f 38/58/29 35/60/29 34/53/29
f 26/39/18 28/45/18 27/40/18
f 32/42/19 36/59/19 33/43/19
f 28/45/20 32/42/20 29/44/20
f 30/46/21 31/54/21 26/39/21
f 28/47/23 32/55/23 31/48/23
f 29/44/23 30/46/23 25/41/23
f 36/50/24 40/61/24 39/51/24
f 34/53/25 35/60/25 31/54/25
f 32/55/26 36/50/26 35/52/26
f 33/43/26 34/53/26 30/46/26
f 37/56/27 40/62/27 39/57/27
f 37/56/24 38/58/24 34/53/24
f 36/59/28 40/62/28 37/56/28
f 38/58/29 39/57/29 35/60/29
